# xmcd
#
# Track frame offsets:
#	150
#	18600
#	33618
#	51478
#	68199
#
# Disc length: 1165 seconds
#
# Revision: 1
# Processed by: cddbd v1.4PL0 Copyright (c) Steve Scherf et al.
# Submitted via: EasyCDDAExtractor 5.1.0
#
DISCID=46048b05
DTITLE=Bobby Kris - now...
DYEAR=1996
DGENRE=Blues
TTITLE0=Walk on by
TTITLE1=I'll go crazy
TTITLE2=She moves me
TTITLE3=Lover's question
TTITLE4=Raining fire
EXTD=
EXTT0=
EXTT1=
EXTT2=
EXTT3=
EXTT4=
PLAYORDER=
